<mxfile host="65bd71144e">
    <diagram name="PÃ¡gina-1" id="dqLcOb5ojzZijLl2xL6k">
        <mxGraphModel dx="1693" dy="952" grid="1" gridSize="10" guides="1" tooltips="1" connect="1" arrows="1" fold="1" page="1" pageScale="1" pageWidth="827" pageHeight="1169" math="0" shadow="0">
            <root>
                <mxCell id="0"/>
                <mxCell id="1" parent="0"/>
                <mxCell id="axeA_orivt2Zv7nJtLyO-1" value="Passageiro" style="shape=umlActor;verticalLabelPosition=bottom;verticalAlign=top;html=1;outlineConnect=0;" parent="1" vertex="1">
                    <mxGeometry x="130" y="210" width="30" height="60" as="geometry"/>
                </mxCell>
                <mxCell id="axeA_orivt2Zv7nJtLyO-3" value="Tela Visualizacao Voos Passageiro" style="rounded=0;whiteSpace=wrap;html=1;" parent="1" vertex="1">
                    <mxGeometry x="270" y="215" width="120" height="50" as="geometry"/>
                </mxCell>
                <mxCell id="axeA_orivt2Zv7nJtLyO-4" value="Voo" style="rounded=0;whiteSpace=wrap;html=1;" parent="1" vertex="1">
                    <mxGeometry x="570" y="215" width="120" height="50" as="geometry"/>
                </mxCell>
                <mxCell id="axeA_orivt2Zv7nJtLyO-9" value="" style="endArrow=none;dashed=1;html=1;rounded=0;entryX=0.5;entryY=0;entryDx=0;entryDy=0;" parent="1" target="axeA_orivt2Zv7nJtLyO-8" edge="1">
                    <mxGeometry width="50" height="50" relative="1" as="geometry">
                        <mxPoint x="140" y="290" as="sourcePoint"/>
                        <mxPoint x="140" y="650" as="targetPoint"/>
                    </mxGeometry>
                </mxCell>
                <mxCell id="axeA_orivt2Zv7nJtLyO-8" value="" style="rounded=1;whiteSpace=wrap;html=1;" parent="1" vertex="1">
                    <mxGeometry x="135" y="300" width="10" height="540" as="geometry"/>
                </mxCell>
                <mxCell id="axeA_orivt2Zv7nJtLyO-54" value="" style="rounded=1;whiteSpace=wrap;html=1;" parent="1" vertex="1">
                    <mxGeometry x="325" y="318" width="10" height="52" as="geometry"/>
                </mxCell>
                <mxCell id="axeA_orivt2Zv7nJtLyO-60" value="" style="endArrow=classic;html=1;rounded=0;exitX=1.085;exitY=0.449;exitDx=0;exitDy=0;exitPerimeter=0;entryX=0;entryY=0;entryDx=0;entryDy=0;" parent="1" target="axeA_orivt2Zv7nJtLyO-54" edge="1">
                    <mxGeometry width="50" height="50" relative="1" as="geometry">
                        <mxPoint x="145.8499999999999" y="318.59000000000015" as="sourcePoint"/>
                        <mxPoint x="690" y="309" as="targetPoint"/>
                    </mxGeometry>
                </mxCell>
                <mxCell id="axeA_orivt2Zv7nJtLyO-61" value="" style="endArrow=none;html=1;rounded=0;entryX=0;entryY=1;entryDx=0;entryDy=0;dashed=1;endFill=0;startArrow=open;startFill=0;" parent="1" target="axeA_orivt2Zv7nJtLyO-54" edge="1">
                    <mxGeometry width="50" height="50" relative="1" as="geometry">
                        <mxPoint x="146" y="370" as="sourcePoint"/>
                        <mxPoint x="635" y="368" as="targetPoint"/>
                    </mxGeometry>
                </mxCell>
                <mxCell id="axeA_orivt2Zv7nJtLyO-63" value="&lt;font&gt;1: Ver voo()&lt;/font&gt;" style="text;html=1;align=center;verticalAlign=middle;whiteSpace=wrap;rounded=0;fontSize=10;" parent="1" vertex="1">
                    <mxGeometry x="156" y="300" width="160" height="20" as="geometry"/>
                </mxCell>
                <mxCell id="axeA_orivt2Zv7nJtLyO-73" value="{Tela Ver Voo}" style="text;html=1;align=center;verticalAlign=middle;whiteSpace=wrap;rounded=0;fontSize=10;" parent="1" vertex="1">
                    <mxGeometry x="153.5" y="370" width="165" height="20" as="geometry"/>
                </mxCell>
                <mxCell id="0-eEK_Ey9VHcflzUC_9f-27" value="" style="endArrow=none;dashed=1;html=1;rounded=0;exitX=0.5;exitY=1;exitDx=0;exitDy=0;" parent="1" edge="1">
                    <mxGeometry width="50" height="50" relative="1" as="geometry">
                        <mxPoint x="139.89000000000001" y="1160" as="sourcePoint"/>
                        <mxPoint x="139.89000000000001" y="1180" as="targetPoint"/>
                    </mxGeometry>
                </mxCell>
                <mxCell id="UyoI0o9oHa3tuSuAJXwl-8" value="" style="endArrow=none;dashed=1;html=1;rounded=0;exitX=0.5;exitY=1;exitDx=0;exitDy=0;entryX=0.5;entryY=0;entryDx=0;entryDy=0;" parent="1" source="axeA_orivt2Zv7nJtLyO-3" target="axeA_orivt2Zv7nJtLyO-54" edge="1">
                    <mxGeometry width="50" height="50" relative="1" as="geometry">
                        <mxPoint x="328" y="265" as="sourcePoint"/>
                        <mxPoint x="328" y="318" as="targetPoint"/>
                    </mxGeometry>
                </mxCell>
                <mxCell id="5HPJEguLjJHBQR9b3Af--21" value="" style="endArrow=none;dashed=1;html=1;rounded=0;exitX=0.5;exitY=1;exitDx=0;exitDy=0;" parent="1" source="axeA_orivt2Zv7nJtLyO-8" edge="1">
                    <mxGeometry width="50" height="50" relative="1" as="geometry">
                        <mxPoint x="139.87" y="380" as="sourcePoint"/>
                        <mxPoint x="140" y="860" as="targetPoint"/>
                    </mxGeometry>
                </mxCell>
                <mxCell id="bviWKVl8PhRQtDl_3QJa-6" value="" style="endArrow=none;dashed=1;html=1;rounded=0;exitX=0.5;exitY=1;exitDx=0;exitDy=0;entryX=0.5;entryY=0;entryDx=0;entryDy=0;" parent="1" source="axeA_orivt2Zv7nJtLyO-4" target="bviWKVl8PhRQtDl_3QJa-8" edge="1">
                    <mxGeometry width="50" height="50" relative="1" as="geometry">
                        <mxPoint x="629.8299999999999" y="370" as="sourcePoint"/>
                        <mxPoint x="629.95" y="410" as="targetPoint"/>
                    </mxGeometry>
                </mxCell>
                <mxCell id="bviWKVl8PhRQtDl_3QJa-7" value="" style="rounded=1;whiteSpace=wrap;html=1;" parent="1" vertex="1">
                    <mxGeometry x="469" y="409" width="10" height="61" as="geometry"/>
                </mxCell>
                <mxCell id="bviWKVl8PhRQtDl_3QJa-8" value="" style="rounded=1;whiteSpace=wrap;html=1;" parent="1" vertex="1">
                    <mxGeometry x="625" y="410" width="10" height="60" as="geometry"/>
                </mxCell>
                <mxCell id="bviWKVl8PhRQtDl_3QJa-11" value="" style="endArrow=classic;html=1;rounded=0;entryX=0;entryY=0;entryDx=0;entryDy=0;" parent="1" target="bviWKVl8PhRQtDl_3QJa-8" edge="1">
                    <mxGeometry width="50" height="50" relative="1" as="geometry">
                        <mxPoint x="480" y="410" as="sourcePoint"/>
                        <mxPoint x="495" y="410" as="targetPoint"/>
                    </mxGeometry>
                </mxCell>
                <mxCell id="bviWKVl8PhRQtDl_3QJa-12" value="" style="endArrow=none;html=1;rounded=0;entryX=0;entryY=1;entryDx=0;entryDy=0;dashed=1;endFill=0;startArrow=open;startFill=0;exitX=1;exitY=1;exitDx=0;exitDy=0;" parent="1" source="bviWKVl8PhRQtDl_3QJa-7" target="bviWKVl8PhRQtDl_3QJa-8" edge="1">
                    <mxGeometry width="50" height="50" relative="1" as="geometry">
                        <mxPoint x="335" y="452" as="sourcePoint"/>
                        <mxPoint x="495" y="452" as="targetPoint"/>
                    </mxGeometry>
                </mxCell>
                <mxCell id="bviWKVl8PhRQtDl_3QJa-13" value="" style="endArrow=classic;html=1;rounded=0;exitX=1.028;exitY=0.588;exitDx=0;exitDy=0;exitPerimeter=0;entryX=0;entryY=0;entryDx=0;entryDy=0;" parent="1" target="bviWKVl8PhRQtDl_3QJa-7" edge="1">
                    <mxGeometry width="50" height="50" relative="1" as="geometry">
                        <mxPoint x="145.28000000000003" y="409.9999999999999" as="sourcePoint"/>
                        <mxPoint x="410" y="430" as="targetPoint"/>
                    </mxGeometry>
                </mxCell>
                <mxCell id="bviWKVl8PhRQtDl_3QJa-14" value="" style="endArrow=none;html=1;rounded=0;entryX=0;entryY=1;entryDx=0;entryDy=0;dashed=1;endFill=0;startArrow=open;startFill=0;" parent="1" target="bviWKVl8PhRQtDl_3QJa-7" edge="1">
                    <mxGeometry width="50" height="50" relative="1" as="geometry">
                        <mxPoint x="145" y="469.77" as="sourcePoint"/>
                        <mxPoint x="325" y="469.77" as="targetPoint"/>
                    </mxGeometry>
                </mxCell>
                <mxCell id="bviWKVl8PhRQtDl_3QJa-16" value="&lt;font&gt;1.1: Inicilizar Tela()&lt;/font&gt;" style="text;html=1;align=center;verticalAlign=middle;whiteSpace=wrap;rounded=0;fontSize=10;" parent="1" vertex="1">
                    <mxGeometry x="242.5" y="390" width="160" height="20" as="geometry"/>
                </mxCell>
                <mxCell id="bviWKVl8PhRQtDl_3QJa-17" value="&lt;font&gt;1.2: get&lt;/font&gt;&lt;font&gt;()&lt;/font&gt;" style="text;html=1;align=center;verticalAlign=middle;whiteSpace=wrap;rounded=0;fontSize=10;" parent="1" vertex="1">
                    <mxGeometry x="465" y="390" width="160" height="20" as="geometry"/>
                </mxCell>
                <mxCell id="bviWKVl8PhRQtDl_3QJa-18" value="{Voo}" style="text;html=1;align=center;verticalAlign=middle;whiteSpace=wrap;rounded=0;fontSize=10;" parent="1" vertex="1">
                    <mxGeometry x="230" y="469" width="180" height="20" as="geometry"/>
                </mxCell>
                <mxCell id="bviWKVl8PhRQtDl_3QJa-19" value="{Voo}" style="text;html=1;align=center;verticalAlign=middle;whiteSpace=wrap;rounded=0;fontSize=10;" parent="1" vertex="1">
                    <mxGeometry x="480" y="470" width="130" height="20" as="geometry"/>
                </mxCell>
                <mxCell id="wXnT_glzjxBGDibIaUP6-1" value="&lt;div&gt;Tela comprar&lt;/div&gt;&lt;div&gt;Passagem&lt;br&gt;&lt;/div&gt;" style="rounded=0;whiteSpace=wrap;html=1;" parent="1" vertex="1">
                    <mxGeometry x="720" y="215" width="120" height="50" as="geometry"/>
                </mxCell>
                <mxCell id="wXnT_glzjxBGDibIaUP6-2" value="Tela Ver Voo" style="rounded=0;whiteSpace=wrap;html=1;" parent="1" vertex="1">
                    <mxGeometry x="414" y="215" width="120" height="50" as="geometry"/>
                </mxCell>
                <mxCell id="wXnT_glzjxBGDibIaUP6-3" value="Passagem" style="rounded=0;whiteSpace=wrap;html=1;" parent="1" vertex="1">
                    <mxGeometry x="920" y="215" width="120" height="50" as="geometry"/>
                </mxCell>
                <mxCell id="wXnT_glzjxBGDibIaUP6-5" value="" style="endArrow=none;dashed=1;html=1;rounded=0;exitX=0.5;exitY=1;exitDx=0;exitDy=0;entryX=0.5;entryY=0;entryDx=0;entryDy=0;" parent="1" target="bviWKVl8PhRQtDl_3QJa-7" edge="1">
                    <mxGeometry width="50" height="50" relative="1" as="geometry">
                        <mxPoint x="473.8" y="265" as="sourcePoint"/>
                        <mxPoint x="473.8" y="410" as="targetPoint"/>
                    </mxGeometry>
                </mxCell>
                <mxCell id="wXnT_glzjxBGDibIaUP6-6" value="" style="rounded=1;whiteSpace=wrap;html=1;" parent="1" vertex="1">
                    <mxGeometry x="469" y="518" width="10" height="52" as="geometry"/>
                </mxCell>
                <mxCell id="wXnT_glzjxBGDibIaUP6-7" value="" style="endArrow=classic;html=1;rounded=0;exitX=1.085;exitY=0.449;exitDx=0;exitDy=0;exitPerimeter=0;entryX=0;entryY=0;entryDx=0;entryDy=0;" parent="1" target="wXnT_glzjxBGDibIaUP6-6" edge="1">
                    <mxGeometry width="50" height="50" relative="1" as="geometry">
                        <mxPoint x="144.99999999999991" y="518.5900000000001" as="sourcePoint"/>
                        <mxPoint x="689.15" y="509" as="targetPoint"/>
                    </mxGeometry>
                </mxCell>
                <mxCell id="wXnT_glzjxBGDibIaUP6-8" value="" style="endArrow=none;html=1;rounded=0;entryX=0;entryY=1;entryDx=0;entryDy=0;dashed=1;endFill=0;startArrow=open;startFill=0;" parent="1" target="wXnT_glzjxBGDibIaUP6-6" edge="1">
                    <mxGeometry width="50" height="50" relative="1" as="geometry">
                        <mxPoint x="145.15" y="570" as="sourcePoint"/>
                        <mxPoint x="634.15" y="568" as="targetPoint"/>
                    </mxGeometry>
                </mxCell>
                <mxCell id="wXnT_glzjxBGDibIaUP6-9" value="&lt;font&gt;2: Comprar passagem()&lt;/font&gt;" style="text;html=1;align=center;verticalAlign=middle;whiteSpace=wrap;rounded=0;fontSize=10;" parent="1" vertex="1">
                    <mxGeometry x="240" y="498" width="160" height="20" as="geometry"/>
                </mxCell>
                <mxCell id="wXnT_glzjxBGDibIaUP6-10" value="{Tela Comprar Passagem}" style="text;html=1;align=center;verticalAlign=middle;whiteSpace=wrap;rounded=0;fontSize=10;" parent="1" vertex="1">
                    <mxGeometry x="237.5" y="570" width="165" height="20" as="geometry"/>
                </mxCell>
                <mxCell id="wXnT_glzjxBGDibIaUP6-11" value="" style="endArrow=none;dashed=1;html=1;rounded=0;exitX=0.5;exitY=1;exitDx=0;exitDy=0;entryX=0.5;entryY=0;entryDx=0;entryDy=0;" parent="1" target="wXnT_glzjxBGDibIaUP6-6" edge="1">
                    <mxGeometry width="50" height="50" relative="1" as="geometry">
                        <mxPoint x="473.83000000000004" y="470" as="sourcePoint"/>
                        <mxPoint x="473.83000000000004" y="523" as="targetPoint"/>
                    </mxGeometry>
                </mxCell>
                <mxCell id="wXnT_glzjxBGDibIaUP6-12" value="" style="rounded=1;whiteSpace=wrap;html=1;" parent="1" vertex="1">
                    <mxGeometry x="775" y="740" width="10" height="70" as="geometry"/>
                </mxCell>
                <mxCell id="wXnT_glzjxBGDibIaUP6-13" value="" style="endArrow=classic;html=1;rounded=0;exitX=1.06;exitY=0.815;exitDx=0;exitDy=0;entryX=0;entryY=0;entryDx=0;entryDy=0;exitPerimeter=0;" parent="1" source="axeA_orivt2Zv7nJtLyO-8" target="wXnT_glzjxBGDibIaUP6-12" edge="1">
                    <mxGeometry width="50" height="50" relative="1" as="geometry">
                        <mxPoint x="145.99999999999991" y="620.5900000000001" as="sourcePoint"/>
                        <mxPoint x="690.15" y="611" as="targetPoint"/>
                    </mxGeometry>
                </mxCell>
                <mxCell id="wXnT_glzjxBGDibIaUP6-14" value="" style="endArrow=none;html=1;rounded=0;entryX=0;entryY=1;entryDx=0;entryDy=0;dashed=1;endFill=0;startArrow=open;startFill=0;exitX=0.94;exitY=0.945;exitDx=0;exitDy=0;exitPerimeter=0;" parent="1" source="axeA_orivt2Zv7nJtLyO-8" target="wXnT_glzjxBGDibIaUP6-12" edge="1">
                    <mxGeometry width="50" height="50" relative="1" as="geometry">
                        <mxPoint x="150" y="690" as="sourcePoint"/>
                        <mxPoint x="635.15" y="670" as="targetPoint"/>
                    </mxGeometry>
                </mxCell>
                <mxCell id="wXnT_glzjxBGDibIaUP6-15" value="&lt;font&gt;2.3: Inserir dados e confirmar()&lt;/font&gt;" style="text;html=1;align=center;verticalAlign=middle;whiteSpace=wrap;rounded=0;fontSize=10;" parent="1" vertex="1">
                    <mxGeometry x="394" y="720" width="160" height="20" as="geometry"/>
                </mxCell>
                <mxCell id="wXnT_glzjxBGDibIaUP6-16" value="{Passagem comprada}" style="text;html=1;align=center;verticalAlign=middle;whiteSpace=wrap;rounded=0;fontSize=10;" parent="1" vertex="1">
                    <mxGeometry x="389" y="810" width="165" height="20" as="geometry"/>
                </mxCell>
                <mxCell id="wXnT_glzjxBGDibIaUP6-22" value="&lt;font&gt;2.4:&amp;nbsp;&lt;/font&gt;&lt;font&gt;criar&lt;/font&gt;&lt;font&gt;()&lt;/font&gt;" style="text;html=1;align=center;verticalAlign=middle;whiteSpace=wrap;rounded=0;fontSize=10;" parent="1" vertex="1">
                    <mxGeometry x="797.5" y="722" width="160" height="20" as="geometry"/>
                </mxCell>
                <mxCell id="wXnT_glzjxBGDibIaUP6-23" value="" style="endArrow=none;dashed=1;html=1;rounded=0;exitX=0.5;exitY=1;exitDx=0;exitDy=0;entryX=0.5;entryY=0;entryDx=0;entryDy=0;" parent="1" target="wXnT_glzjxBGDibIaUP6-24" edge="1">
                    <mxGeometry width="50" height="50" relative="1" as="geometry">
                        <mxPoint x="979.66" y="265" as="sourcePoint"/>
                        <mxPoint x="979.9" y="620" as="targetPoint"/>
                    </mxGeometry>
                </mxCell>
                <mxCell id="wXnT_glzjxBGDibIaUP6-24" value="" style="rounded=1;whiteSpace=wrap;html=1;" parent="1" vertex="1">
                    <mxGeometry x="975" y="740" width="10" height="70" as="geometry"/>
                </mxCell>
                <mxCell id="wXnT_glzjxBGDibIaUP6-26" value="" style="endArrow=classic;html=1;rounded=0;exitX=1.085;exitY=0.449;exitDx=0;exitDy=0;exitPerimeter=0;entryX=0;entryY=0;entryDx=0;entryDy=0;" parent="1" edge="1">
                    <mxGeometry width="50" height="50" relative="1" as="geometry">
                        <mxPoint x="784.9999999999999" y="743.0000000000002" as="sourcePoint"/>
                        <mxPoint x="975" y="743" as="targetPoint"/>
                        <Array as="points">
                            <mxPoint x="860" y="743"/>
                            <mxPoint x="880" y="743"/>
                        </Array>
                    </mxGeometry>
                </mxCell>
                <mxCell id="wXnT_glzjxBGDibIaUP6-27" value="" style="endArrow=none;html=1;rounded=0;entryX=0;entryY=1;entryDx=0;entryDy=0;dashed=1;endFill=0;startArrow=open;startFill=0;exitX=1;exitY=1;exitDx=0;exitDy=0;" parent="1" source="wXnT_glzjxBGDibIaUP6-12" target="wXnT_glzjxBGDibIaUP6-24" edge="1">
                    <mxGeometry width="50" height="50" relative="1" as="geometry">
                        <mxPoint x="800" y="680" as="sourcePoint"/>
                        <mxPoint x="975" y="689.72" as="targetPoint"/>
                    </mxGeometry>
                </mxCell>
                <mxCell id="wXnT_glzjxBGDibIaUP6-29" value="{Passagem criada}" style="text;html=1;align=center;verticalAlign=middle;whiteSpace=wrap;rounded=0;fontSize=10;" parent="1" vertex="1">
                    <mxGeometry x="795" y="809" width="165" height="20" as="geometry"/>
                </mxCell>
                <mxCell id="wXnT_glzjxBGDibIaUP6-30" value="" style="endArrow=none;dashed=1;html=1;rounded=0;exitX=0.5;exitY=1;exitDx=0;exitDy=0;" parent="1" edge="1">
                    <mxGeometry width="50" height="50" relative="1" as="geometry">
                        <mxPoint x="329.8" y="370" as="sourcePoint"/>
                        <mxPoint x="329.8" y="390" as="targetPoint"/>
                    </mxGeometry>
                </mxCell>
                <mxCell id="wXnT_glzjxBGDibIaUP6-33" value="" style="endArrow=none;dashed=1;html=1;rounded=0;exitX=0.5;exitY=1;exitDx=0;exitDy=0;" parent="1" edge="1">
                    <mxGeometry width="50" height="50" relative="1" as="geometry">
                        <mxPoint x="473.76" y="570" as="sourcePoint"/>
                        <mxPoint x="473.76" y="590" as="targetPoint"/>
                    </mxGeometry>
                </mxCell>
                <mxCell id="wXnT_glzjxBGDibIaUP6-34" value="" style="endArrow=none;dashed=1;html=1;rounded=0;exitX=0.5;exitY=1;exitDx=0;exitDy=0;" parent="1" source="wXnT_glzjxBGDibIaUP6-12" edge="1">
                    <mxGeometry width="50" height="50" relative="1" as="geometry">
                        <mxPoint x="779.79" y="690" as="sourcePoint"/>
                        <mxPoint x="780" y="840" as="targetPoint"/>
                    </mxGeometry>
                </mxCell>
                <mxCell id="wXnT_glzjxBGDibIaUP6-35" value="" style="endArrow=none;dashed=1;html=1;rounded=0;exitX=0.5;exitY=1;exitDx=0;exitDy=0;" parent="1" source="wXnT_glzjxBGDibIaUP6-24" edge="1">
                    <mxGeometry width="50" height="50" relative="1" as="geometry">
                        <mxPoint x="979.79" y="689" as="sourcePoint"/>
                        <mxPoint x="980" y="840" as="targetPoint"/>
                    </mxGeometry>
                </mxCell>
                <mxCell id="wXnT_glzjxBGDibIaUP6-36" value="" style="endArrow=none;dashed=1;html=1;rounded=0;exitX=0.5;exitY=1;exitDx=0;exitDy=0;" parent="1" edge="1">
                    <mxGeometry width="50" height="50" relative="1" as="geometry">
                        <mxPoint x="629.89" y="470" as="sourcePoint"/>
                        <mxPoint x="629.89" y="490" as="targetPoint"/>
                    </mxGeometry>
                </mxCell>
                <mxCell id="h5sNgmr6IIOMYlCKp8dG-5" value="" style="endArrow=classic;html=1;rounded=0;entryX=0;entryY=0;entryDx=0;entryDy=0;exitX=1;exitY=0;exitDx=0;exitDy=0;" parent="1" source="h5sNgmr6IIOMYlCKp8dG-13" target="h5sNgmr6IIOMYlCKp8dG-4" edge="1">
                    <mxGeometry width="50" height="50" relative="1" as="geometry">
                        <mxPoint x="480" y="630" as="sourcePoint"/>
                        <mxPoint x="495" y="630" as="targetPoint"/>
                    </mxGeometry>
                </mxCell>
                <mxCell id="h5sNgmr6IIOMYlCKp8dG-6" value="" style="endArrow=none;html=1;rounded=0;entryX=0;entryY=1;entryDx=0;entryDy=0;dashed=1;endFill=0;startArrow=open;startFill=0;exitX=1;exitY=1;exitDx=0;exitDy=0;" parent="1" source="h5sNgmr6IIOMYlCKp8dG-13" target="h5sNgmr6IIOMYlCKp8dG-4" edge="1">
                    <mxGeometry width="50" height="50" relative="1" as="geometry">
                        <mxPoint x="479" y="690" as="sourcePoint"/>
                        <mxPoint x="495" y="672" as="targetPoint"/>
                    </mxGeometry>
                </mxCell>
                <mxCell id="h5sNgmr6IIOMYlCKp8dG-7" value="" style="endArrow=classic;html=1;rounded=0;exitX=1.028;exitY=0.588;exitDx=0;exitDy=0;exitPerimeter=0;entryX=0;entryY=0;entryDx=0;entryDy=0;" parent="1" target="h5sNgmr6IIOMYlCKp8dG-13" edge="1">
                    <mxGeometry width="50" height="50" relative="1" as="geometry">
                        <mxPoint x="145.28000000000003" y="629.9999999999999" as="sourcePoint"/>
                        <mxPoint x="469" y="629" as="targetPoint"/>
                    </mxGeometry>
                </mxCell>
                <mxCell id="h5sNgmr6IIOMYlCKp8dG-8" value="" style="endArrow=none;html=1;rounded=0;entryX=0;entryY=1;entryDx=0;entryDy=0;dashed=1;endFill=0;startArrow=open;startFill=0;" parent="1" target="h5sNgmr6IIOMYlCKp8dG-13" edge="1">
                    <mxGeometry width="50" height="50" relative="1" as="geometry">
                        <mxPoint x="145" y="689.77" as="sourcePoint"/>
                        <mxPoint x="469" y="690" as="targetPoint"/>
                    </mxGeometry>
                </mxCell>
                <mxCell id="h5sNgmr6IIOMYlCKp8dG-9" value="&lt;font&gt;2.1: Inicilizar Tela()&lt;/font&gt;" style="text;html=1;align=center;verticalAlign=middle;whiteSpace=wrap;rounded=0;fontSize=10;" parent="1" vertex="1">
                    <mxGeometry x="394" y="609.5" width="160" height="20" as="geometry"/>
                </mxCell>
                <mxCell id="h5sNgmr6IIOMYlCKp8dG-10" value="&lt;font&gt;2.2: listar&lt;/font&gt;&lt;font&gt;()&lt;/font&gt;" style="text;html=1;align=center;verticalAlign=middle;whiteSpace=wrap;rounded=0;fontSize=10;" parent="1" vertex="1">
                    <mxGeometry x="800" y="610" width="160" height="20" as="geometry"/>
                </mxCell>
                <mxCell id="h5sNgmr6IIOMYlCKp8dG-11" value="{Metodos de pagamento}" style="text;html=1;align=center;verticalAlign=middle;whiteSpace=wrap;rounded=0;fontSize=10;" parent="1" vertex="1">
                    <mxGeometry x="384" y="689" width="180" height="20" as="geometry"/>
                </mxCell>
                <mxCell id="h5sNgmr6IIOMYlCKp8dG-12" value="{Metodos de pagamento}" style="text;html=1;align=center;verticalAlign=middle;whiteSpace=wrap;rounded=0;fontSize=10;" parent="1" vertex="1">
                    <mxGeometry x="815" y="689" width="130" height="20" as="geometry"/>
                </mxCell>
                <mxCell id="h5sNgmr6IIOMYlCKp8dG-16" value="" style="endArrow=none;dashed=1;html=1;rounded=0;exitX=0.5;exitY=1;exitDx=0;exitDy=0;entryX=0.5;entryY=0;entryDx=0;entryDy=0;" parent="1" source="h5sNgmr6IIOMYlCKp8dG-13" target="wXnT_glzjxBGDibIaUP6-12" edge="1">
                    <mxGeometry width="50" height="50" relative="1" as="geometry">
                        <mxPoint x="779.76" y="265" as="sourcePoint"/>
                        <mxPoint x="790" y="620" as="targetPoint"/>
                    </mxGeometry>
                </mxCell>
                <mxCell id="h5sNgmr6IIOMYlCKp8dG-4" value="" style="rounded=1;whiteSpace=wrap;html=1;" parent="1" vertex="1">
                    <mxGeometry x="1135" y="630" width="10" height="60" as="geometry"/>
                </mxCell>
                <mxCell id="h5sNgmr6IIOMYlCKp8dG-18" value="MetodoPagamento" style="rounded=0;whiteSpace=wrap;html=1;" parent="1" vertex="1">
                    <mxGeometry x="1080" y="215" width="120" height="50" as="geometry"/>
                </mxCell>
                <mxCell id="h5sNgmr6IIOMYlCKp8dG-19" value="" style="endArrow=none;dashed=1;html=1;rounded=0;exitX=0.5;exitY=1;exitDx=0;exitDy=0;entryX=0.5;entryY=0;entryDx=0;entryDy=0;" parent="1" edge="1">
                    <mxGeometry width="50" height="50" relative="1" as="geometry">
                        <mxPoint x="1139.57" y="264" as="sourcePoint"/>
                        <mxPoint x="1139.81" y="630" as="targetPoint"/>
                    </mxGeometry>
                </mxCell>
                <mxCell id="h5sNgmr6IIOMYlCKp8dG-21" value="" style="endArrow=none;dashed=1;html=1;rounded=0;exitX=0.5;exitY=1;exitDx=0;exitDy=0;entryX=0.5;entryY=0;entryDx=0;entryDy=0;" parent="1" target="h5sNgmr6IIOMYlCKp8dG-13" edge="1">
                    <mxGeometry width="50" height="50" relative="1" as="geometry">
                        <mxPoint x="779.76" y="265" as="sourcePoint"/>
                        <mxPoint x="780" y="740" as="targetPoint"/>
                    </mxGeometry>
                </mxCell>
                <mxCell id="h5sNgmr6IIOMYlCKp8dG-13" value="" style="rounded=1;whiteSpace=wrap;html=1;" parent="1" vertex="1">
                    <mxGeometry x="775" y="629.5" width="10" height="60.5" as="geometry"/>
                </mxCell>
                <mxCell id="h5sNgmr6IIOMYlCKp8dG-22" value="" style="endArrow=none;dashed=1;html=1;rounded=0;exitX=0.5;exitY=1;exitDx=0;exitDy=0;" parent="1" edge="1">
                    <mxGeometry width="50" height="50" relative="1" as="geometry">
                        <mxPoint x="1139.81" y="690" as="sourcePoint"/>
                        <mxPoint x="1139.81" y="720" as="targetPoint"/>
                    </mxGeometry>
                </mxCell>
            </root>
        </mxGraphModel>
    </diagram>
</mxfile>